<svg width="252" height="165" viewBox="0 0 252 165" fill="none" xmlns="http://www.w3.org/2000/svg">
<path d="M177.799 155.868L177.81 164.14C177.81 164.266 177.918 164.375 178.042 164.375H179.495C179.63 164.375 179.728 164.266 179.728 164.14V159.554H179.738L184.567 164.435C184.594 164.456 184.691 164.495 184.724 164.495H184.918C185.042 164.495 185.15 164.396 185.15 164.271V155.999C185.15 155.874 185.042 155.765 184.918 155.765H183.449C183.314 155.765 183.217 155.874 183.217 155.999V160.361H183.206L178.329 155.645H178.021C177.913 155.65 177.799 155.748 177.799 155.868ZM168.266 156.004V164.14C168.266 164.266 168.363 164.375 168.498 164.375H173.559C173.694 164.375 173.792 164.266 173.792 164.14V162.799C173.792 162.673 173.694 162.564 173.559 162.564H170.173V160.907H172.96C173.084 160.907 173.192 160.808 173.192 160.672V159.331C173.192 159.205 173.084 159.096 172.96 159.096H170.173V157.575H173.559C173.694 157.575 173.792 157.466 173.792 157.34V155.999C173.792 155.874 173.694 155.765 173.559 155.765H168.498C168.363 155.77 168.266 155.884 168.266 156.004ZM156.686 156.092L160.499 164.364C160.537 164.44 160.607 164.5 160.71 164.5H160.834C160.931 164.5 161.007 164.44 161.045 164.364L164.885 156.092C164.961 155.934 164.863 155.77 164.68 155.77H163.054C162.957 155.77 162.87 155.846 162.843 155.906L160.829 160.394H160.753L158.738 155.906C158.711 155.846 158.63 155.77 158.528 155.77H156.902C156.713 155.77 156.616 155.934 156.686 156.092ZM147.266 133.402V128.555H155.406C155.762 128.555 156.086 128.266 156.086 127.873V123.958C156.086 123.598 155.762 123.276 155.406 123.276H147.266V118.827H157.156C157.55 118.827 157.836 118.505 157.836 118.145V114.23C157.836 113.87 157.55 113.549 157.156 113.549H142.373C141.978 113.549 141.692 113.87 141.692 114.23V137.999C141.692 138.359 141.978 138.681 142.373 138.681H157.156C157.55 138.681 157.836 138.359 157.836 137.999V134.084C157.836 133.724 157.55 133.402 157.156 133.402H147.266ZM150.059 161.425L150.977 159.396H150.988L151.917 161.425H150.059ZM146.894 164.058C146.818 164.216 146.921 164.38 147.104 164.38H148.449C148.692 164.38 148.827 164.233 148.892 164.086L149.335 163.104H152.657L153.1 164.075C153.208 164.309 153.305 164.38 153.526 164.38H154.882C155.066 164.38 155.163 164.222 155.093 164.058L151.269 155.786C151.231 155.71 151.144 155.65 151.058 155.65H150.934C150.847 155.65 150.761 155.71 150.728 155.786L146.894 164.058ZM136.172 156.004V164.14C136.172 164.266 136.28 164.375 136.404 164.375H137.857C137.992 164.375 138.09 164.266 138.09 164.14V160.907H141.584V164.14C141.584 164.266 141.681 164.375 141.816 164.375H143.269C143.394 164.375 143.502 164.266 143.502 164.14V156.004C143.502 155.879 143.394 155.77 143.269 155.77H141.816C141.681 155.77 141.584 155.879 141.584 156.004V159.102H138.09V156.004C138.09 155.879 137.992 155.77 137.857 155.77H136.404C136.28 155.77 136.172 155.884 136.172 156.004ZM119.239 155.868L119.25 164.14C119.25 164.266 119.358 164.375 119.482 164.375H120.935C121.07 164.375 121.168 164.266 121.168 164.14V159.554H121.178L126.007 164.435C126.034 164.456 126.131 164.495 126.164 164.495H126.358C126.482 164.495 126.59 164.396 126.59 164.271V155.999C126.59 155.874 126.482 155.765 126.358 155.765H124.894C124.759 155.765 124.662 155.874 124.662 155.999V160.361H124.651L119.774 155.645H119.466C119.347 155.65 119.239 155.748 119.239 155.868ZM113.022 118.827H118.127V137.999C118.127 138.359 118.451 138.681 118.807 138.681H123.09C123.447 138.681 123.771 138.359 123.771 137.999V118.827H128.875C129.269 118.827 129.556 118.505 129.556 118.145V114.23C129.556 113.87 129.269 113.549 128.875 113.549H113.022C112.628 113.549 112.342 113.87 112.342 114.23V118.145C112.342 118.505 112.628 118.827 113.022 118.827ZM109.701 156.004V164.14C109.701 164.266 109.798 164.375 109.933 164.375H114.994C115.129 164.375 115.226 164.266 115.226 164.14V162.799C115.226 162.673 115.129 162.564 114.994 162.564H111.607V160.907H114.394C114.519 160.907 114.627 160.808 114.627 160.672V159.331C114.627 159.205 114.519 159.096 114.394 159.096H111.607V157.575H114.994C115.129 157.575 115.226 157.466 115.226 157.34V155.999C115.226 155.874 115.129 155.765 114.994 155.765H109.933C109.798 155.77 109.701 155.884 109.701 156.004ZM100.238 157.58H101.41C102.793 157.58 103.792 158.676 103.792 160.061C103.792 161.463 102.787 162.559 101.41 162.559H100.238V157.58ZM98.3312 156.004V164.14C98.3312 164.266 98.4284 164.375 98.5526 164.375H101.534C103.894 164.375 105.823 162.444 105.823 160.061C105.823 157.7 103.889 155.77 101.534 155.77H98.5526C98.4284 155.77 98.3312 155.884 98.3312 156.004ZM86.0596 155.846L84.6769 164.107C84.6553 164.266 84.7633 164.38 84.9092 164.38H86.3513C86.4755 164.38 86.5727 164.282 86.5835 164.184L87.1182 160.383H87.1453L89.2085 164.364C89.2463 164.44 89.3436 164.5 89.4192 164.5H89.6406C89.7 164.5 89.8135 164.44 89.8459 164.364L91.8983 160.383H91.9253L92.4763 164.184C92.4871 164.282 92.6005 164.38 92.7085 164.38H94.1506C94.2965 164.38 94.4099 164.271 94.3829 164.107L93.0002 155.846C92.9894 155.737 92.876 155.65 92.7787 155.65H92.5843C92.5249 155.65 92.4114 155.699 92.379 155.77L89.5434 161.081H89.5164L86.6808 155.77C86.6429 155.699 86.5349 155.65 86.4755 155.65H86.2811C86.1784 155.65 86.0704 155.737 86.0596 155.846ZM79.4215 138.681H83.6723C84.0666 138.681 84.3528 138.359 84.3528 137.999V124.607H84.3906L98.4932 138.861C98.5634 138.932 98.8497 139.041 98.9577 139.041H99.5303C99.8867 139.041 100.211 138.752 100.211 138.392V114.23C100.211 113.87 99.8867 113.549 99.5303 113.549H95.2471C94.8528 113.549 94.5665 113.87 94.5665 114.23V126.973H94.5287L80.2803 113.189H79.3891C79.0326 113.189 78.7086 113.478 78.7086 113.832L78.7464 137.994C78.741 138.359 79.065 138.681 79.4215 138.681ZM76.8019 161.425L77.7201 159.396H77.7309L78.66 161.425H76.8019ZM73.6368 164.058C73.5666 164.216 73.6638 164.38 73.8475 164.38H75.1924C75.4354 164.38 75.5704 164.233 75.6353 164.086L76.0728 163.104H79.3999L79.8374 164.075C79.9454 164.309 80.0481 164.38 80.2641 164.38H81.6198C81.8035 164.38 81.9007 164.222 81.8305 164.058L78.0064 155.786C77.9686 155.71 77.8822 155.65 77.7958 155.65H77.6715C77.5851 155.65 77.4987 155.71 77.4609 155.786L73.6368 164.058ZM28.8607 137.89L24.826 113.761C24.7882 113.439 24.4695 113.189 24.1833 113.189H23.6107C23.4325 113.189 23.1138 113.33 23.0058 113.549L14.7203 129.056H14.6501L6.36464 113.549C6.25662 113.33 5.93795 113.189 5.75971 113.189H5.18718C4.90091 113.189 4.58224 113.439 4.54443 113.761L0.509721 137.89C0.439506 138.359 0.758177 138.681 1.19027 138.681H5.40322C5.75971 138.681 6.04597 138.392 6.08378 138.108L7.65553 127.012H7.72575L13.7589 138.643C13.8669 138.855 14.1532 139.035 14.3638 139.035H15.0066C15.1848 139.035 15.5089 138.855 15.6115 138.643L21.6123 127.012H21.6825L23.2921 138.108C23.3299 138.397 23.6485 138.681 23.9726 138.681H28.1856C28.6069 138.681 28.9309 138.359 28.8607 137.89ZM60.1392 126.15C60.1392 130.065 56.9254 133.293 52.9988 133.293C49.1045 133.293 45.8962 130.06 45.8962 126.15C45.8962 122.202 49.1099 118.931 52.9988 118.931C56.9254 118.936 60.1392 122.202 60.1392 126.15ZM65.8537 126.15C65.8537 118.969 60.1392 113.189 52.9988 113.189C45.8583 113.189 40.1817 118.969 40.1817 126.15C40.1817 133.331 45.8583 139.041 52.9988 139.041C60.1392 139.041 65.8537 133.331 65.8537 126.15ZM70.8822 157.139C70.9794 157.041 70.9794 156.893 70.8714 156.795C70.0396 156.032 69.1376 155.65 67.9115 155.65C65.4648 155.65 63.4987 157.629 63.4987 160.089C63.4987 162.548 65.4648 164.5 67.9115 164.5C68.9972 164.5 70.0504 164.118 70.8822 163.306C70.9686 163.219 70.9794 163.06 70.893 162.973L69.9424 161.954C69.8668 161.866 69.7101 161.866 69.6237 161.943C69.1862 162.324 68.5597 162.532 67.9871 162.532C66.6044 162.532 65.5782 161.403 65.5782 160.034C65.5782 158.655 66.5936 157.504 67.9763 157.504C68.5759 157.504 69.1754 157.728 69.6237 158.131C69.7101 158.218 69.8452 158.218 69.9316 158.131L70.8822 157.139ZM161.547 66.7903V8.57022C161.547 1.2634 170.513 4.75323 170.513 2.0268C170.513 0.718114 169.865 0.5 168.137 0.5C164.356 0.5 161.547 0.718114 155.071 0.718114H150.102L129.545 50.0392C128.713 47.9998 117.587 20.9046 112.023 11.3457C106.422 1.72144 98.9361 0.570887 92.8219 0.505453C103.144 5.71838 108.394 27.0336 108.394 27.0336C107.27 23.98 100.114 5.34213 87.5287 0.5H71.2009C80.6314 2.70841 84.5473 7.03797 87.6854 11.771V47.8144C87.6854 61.0103 86.7132 69.5113 79.0434 71.6924C76.2348 72.5649 75.0465 72.0196 75.0465 73.7645C75.0465 74.746 76.0187 74.8551 77.5311 74.8551H99.2386C100.967 74.8551 101.615 74.637 101.615 73.6555C101.615 72.1287 100.319 72.5649 97.5102 71.6924C93.4053 70.3838 90.2726 65.9124 90.2726 56.6426V15.9152C96.3273 26.3084 110.938 58.7583 115.34 70.5746C117.316 75.8802 121.583 74.6424 121.583 74.6424C122.34 74.6424 122.772 73.3338 123.204 72.3522L148.373 10.097H148.59V66.7903C148.59 74.0972 139.623 70.6073 139.623 73.3338C139.623 74.6424 140.272 74.8605 142 74.8605H168.137C169.865 74.8605 170.513 74.6424 170.513 73.3338C170.513 70.6073 161.547 74.0972 161.547 66.7903ZM184.794 121.412C184.794 122.922 183.546 124.285 182.082 124.285H176.8V118.685H182.082C183.541 118.685 184.794 119.907 184.794 121.412ZM190.325 121.302C190.325 117.033 186.825 113.549 182.542 113.549H171.863C171.469 113.549 171.183 113.87 171.183 114.23V137.999C171.183 138.359 171.469 138.681 171.863 138.681H176.114C176.471 138.681 176.795 138.359 176.795 137.999V128.844H179.258L184.005 138.359C184.076 138.501 184.292 138.681 184.578 138.681H189.326C189.93 138.681 190.184 138.108 189.93 137.639L185.037 128.522C188.148 127.262 190.325 124.607 190.325 121.302ZM219.821 137.999V134.084C219.821 133.724 219.535 133.402 219.14 133.402H209.251V128.555H217.39C217.747 128.555 218.071 128.266 218.071 127.873V123.958C218.071 123.598 217.752 123.276 217.39 123.276H209.251V118.827H219.14C219.535 118.827 219.821 118.505 219.821 118.145V114.23C219.821 113.87 219.535 113.549 219.14 113.549H204.357C203.963 113.549 203.677 113.87 203.677 114.23V137.999C203.677 138.359 203.963 138.681 204.357 138.681H219.14C219.535 138.681 219.821 138.359 219.821 137.999ZM250.813 113.549H246.173C245.855 113.549 245.709 113.728 245.601 113.87L240.637 121.232L235.673 113.87C235.565 113.728 235.387 113.549 235.101 113.549H230.461C229.889 113.549 229.602 114.121 229.889 114.59L237.78 126.581V137.999C237.78 138.359 238.066 138.681 238.46 138.681H242.711C243.068 138.681 243.392 138.359 243.392 137.999V126.548L251.391 114.59C251.672 114.127 251.385 113.549 250.813 113.549Z" fill="white"/>
</svg>
