<svg width="285" height="88" viewBox="0 0 285 88" fill="none" xmlns="http://www.w3.org/2000/svg">
<g clip-path="url(#clip0)">
<path d="M-0.0976562 88.0091L42.8484 0.00914337C109.292 0.00914337 242.299 0.0022133 276.722 0.000419716L284.996 0C285.023 0.914062 285.003 58.3125 285.003 88.0091H-0.0976562Z" fill="#FFCB05"/>
<path d="M285 0H43V88H285V0Z" fill="#FFCB05"/>
<path fill-rule="evenodd" clip-rule="evenodd" d="M96.0431 22.1272C94.3351 18.8727 90.8342 16.6454 86.7953 16.6454C82.7848 16.6454 79.3027 18.8454 77.5853 22.0636L60.3164 55.9727H72.1404L86.7953 27.3908L102.281 55.9727H114.605L96.0431 22.1272Z" fill="black" stroke="black" stroke-width="0.1708"/>
<path fill-rule="evenodd" clip-rule="evenodd" d="M137.922 45.9001H123.767V17.1547H112.227V47.3819C112.227 52.1274 116.218 55.9819 121.144 55.9819H137.922V45.9001Z" fill="black" stroke="black" stroke-width="0.1708"/>
<path fill-rule="evenodd" clip-rule="evenodd" d="M193.965 22.1272C192.257 18.8727 188.756 16.6454 184.717 16.6454C180.707 16.6454 177.225 18.8454 175.507 22.0636L163.372 45.8999H151.076V17.1545H139.535V47.3818C139.535 52.1272 143.527 55.9818 148.453 55.9818H158.238H170.062L184.717 27.3999L200.203 55.9818H212.527L193.965 22.1272Z" fill="black" stroke="black" stroke-width="0.1708"/>
<path fill-rule="evenodd" clip-rule="evenodd" d="M172.394 55.9728H197.202L184.718 32.0455L172.394 55.9728Z" fill="#ED1C24"/>
<path fill-rule="evenodd" clip-rule="evenodd" d="M74.668 55.9728H99.4861L86.9921 32.0455L74.668 55.9728Z" fill="#ED1C24"/>
<path fill-rule="evenodd" clip-rule="evenodd" d="M232.099 22.1272C230.429 19.0545 227.079 16.9545 223.229 16.9545C217.699 16.9545 213.207 21.2817 213.207 26.609V55.9726H224.352V30.5181L235.515 53.0454C236.308 54.8999 238.204 56.209 240.422 56.209C242.621 56.209 244.499 54.9272 245.31 53.0999L257.247 30.4363V55.9726H267.722V26.609C267.722 21.2726 263.24 16.9545 257.7 16.9545C253.812 16.9545 250.434 19.0908 248.773 22.2272L240.413 40.0817L232.09 21.8545" fill="black"/>
<path d="M232.099 22.1272C230.429 19.0545 227.079 16.9545 223.229 16.9545C217.699 16.9545 213.207 21.2817 213.207 26.609V55.9726H224.352V30.5181L235.515 53.0454C236.308 54.8999 238.204 56.209 240.422 56.209C242.621 56.209 244.499 54.9272 245.31 53.0999L257.247 30.4363V55.9726H267.722V26.609C267.722 21.2726 263.24 16.9545 257.7 16.9545C253.812 16.9545 250.434 19.0908 248.773 22.2272L240.413 40.0817L232.09 21.8545" stroke="black" stroke-width="0.1708"/>
<path d="M61.4961 61.6364H64.6101C66.0634 61.6364 67.2807 61.7273 68.1205 62.7C68.649 63.3182 68.7339 64.0182 68.7339 64.5182C68.7339 65.6545 68.2432 66.6091 67.4505 67.1091C66.7051 67.5636 65.6859 67.5636 65.1575 67.5636H63.6854V71.3454H61.4961V61.6364ZM63.6382 66.0182H64.5063C65.2046 66.0182 66.5069 66.0182 66.5069 64.5363C66.5069 63.2182 65.3462 63.2182 64.7328 63.2182H63.6382V66.0182Z" fill="black"/>
<path d="M75.707 61.6092H79.5854C80.7084 61.6001 81.8408 61.6001 82.6523 62.2729C83.2846 62.8001 83.5299 63.5092 83.5299 64.1456C83.5299 65.9638 81.9068 66.391 81.4161 66.5274C82.9449 66.6638 83.0487 67.5001 83.2374 68.7638C83.3884 69.9092 83.4733 70.3819 83.5488 70.6456C83.662 71.0728 83.747 71.1819 83.8602 71.3456H81.4728C81.3784 70.8092 81.067 68.3456 80.9254 67.9638C80.7273 67.4092 80.1988 67.4092 79.8308 67.4092H77.9152V71.3456H75.707V61.6092ZM77.8397 65.8638H79.5854C79.8402 65.8638 80.3404 65.8638 80.6895 65.591C80.8405 65.4819 81.2463 65.1456 81.2463 64.4638C81.2463 63.8001 80.9066 63.491 80.7178 63.3729C80.3781 63.1456 79.9723 63.1456 79.2929 63.1456H77.8397V65.8638Z" fill="black"/>
<path d="M95.7885 61.4091C96.8643 61.4091 98.3458 61.6545 99.3367 62.7272C100.412 63.9091 100.62 65.4363 100.62 66.3909C100.62 67.8091 100.177 69.3182 99.3461 70.2C98.2232 71.4091 96.5906 71.5909 95.7508 71.5909C94.4202 71.5909 93.0897 71.1909 92.1743 70.2545C91.0703 69.1272 90.9287 67.5091 90.9287 66.6182C90.9381 64.0363 92.146 61.4091 95.7885 61.4091ZM93.9578 69.2727C94.2693 69.6818 94.7788 70.0545 95.7885 70.0545C96.6661 70.0545 97.2701 69.7545 97.6758 69.1545C98.0156 68.6727 98.3647 67.9182 98.3647 66.3636C98.3647 65.8909 98.327 65.2181 98.1099 64.6272C97.6947 63.4272 96.836 62.9 95.8074 62.9C94.9959 62.9 94.3542 63.2272 93.9484 63.7181C93.3728 64.3909 93.2029 65.4454 93.2029 66.5454C93.2029 67.4818 93.3539 68.5182 93.9578 69.2727Z" fill="black"/>
<path d="M108.424 61.6364H111.538C112.991 61.6364 114.208 61.7273 115.048 62.7C115.576 63.3182 115.661 64.0182 115.661 64.5182C115.661 65.6545 115.171 66.6091 114.378 67.1091C113.632 67.5636 112.613 67.5636 112.085 67.5636H110.613V71.3454H108.414V61.6364H108.424ZM110.566 66.0182H111.434C112.132 66.0182 113.434 66.0182 113.434 64.5363C113.434 63.2182 112.274 63.2182 111.66 63.2182H110.566V66.0182Z" fill="black"/>
<path d="M123.381 61.6091H130.147V63.2H125.541V65.5182H129.845V67.1091H125.541V69.7364H130.298V71.3546H123.371V61.6091H123.381Z" fill="black"/>
<path d="M138.026 61.6092H141.905C143.028 61.6001 144.16 61.6001 144.972 62.2729C145.604 62.8001 145.849 63.5092 145.849 64.1456C145.849 65.9638 144.226 66.391 143.735 66.5274C145.264 66.6638 145.368 67.5001 145.557 68.7638C145.708 69.9092 145.793 70.3819 145.868 70.6456C145.981 71.0728 146.066 71.1819 146.18 71.3456H143.792C143.698 70.8092 143.386 68.3456 143.245 67.9638C143.047 67.4092 142.518 67.4092 142.15 67.4092H140.244V71.3456H138.036V61.6092H138.026ZM140.159 65.8638H141.905C142.16 65.8638 142.66 65.8638 143.009 65.591C143.16 65.4819 143.566 65.1456 143.566 64.4638C143.566 63.8001 143.226 63.491 143.037 63.3729C142.697 63.1456 142.292 63.1456 141.612 63.1456H140.159V65.8638Z" fill="black"/>
<path d="M155.73 63.2273H152.72V61.6091H160.911V63.2273H157.9V71.3546H155.721V63.2273H155.73Z" fill="black"/>
<path d="M169.837 61.6545L171.923 66.0909L174.046 61.6545H176.273L172.857 67.8091V71.3545H170.715V67.7818L167.299 61.6545H169.837Z" fill="black"/>
<path d="M200.628 64.6C200.61 64.3455 200.6 63.9909 200.345 63.6182C199.93 62.9727 199.128 62.8636 198.656 62.8636C196.193 62.8636 195.703 65.0727 195.703 66.5636C195.703 67.2273 195.797 68.4091 196.542 69.1818C197.043 69.7182 197.722 70.0182 198.92 70.0182C199.968 70.0182 200.336 69.9 200.572 69.8273V67.7818H198.618V66.1636H202.742V71.0273C202.11 71.2273 201.081 71.5636 199.053 71.5636C196.741 71.5636 195.552 71.0273 194.759 70.2727C193.627 69.2091 193.419 67.6545 193.419 66.6364C193.419 63.1909 195.655 61.3455 198.722 61.3455C200.025 61.3455 201.364 61.7 202.167 62.5727C202.837 63.3182 202.884 64.0818 202.893 64.6091H200.628V64.6Z" fill="black"/>
<path d="M210.886 61.6092H214.765C215.888 61.6001 217.02 61.6001 217.822 62.2729C218.454 62.8001 218.7 63.5092 218.7 64.1456C218.7 65.9638 217.077 66.391 216.586 66.5274C218.115 66.6638 218.219 67.5001 218.398 68.7638C218.549 69.9092 218.634 70.3819 218.709 70.6456C218.823 71.0728 218.907 71.1819 219.021 71.3456H216.633C216.539 70.8092 216.227 68.3456 216.086 67.9638C215.888 67.4092 215.359 67.4092 214.991 67.4092H213.085V71.3456H210.877V61.6092H210.886ZM213.028 65.8638H214.774C215.029 65.8638 215.529 65.8638 215.878 65.591C216.029 65.4819 216.435 65.1456 216.435 64.4638C216.435 63.8001 216.105 63.491 215.907 63.3729C215.567 63.1456 215.161 63.1456 214.482 63.1456H213.028V65.8638Z" fill="black"/>
<path d="M230.967 61.4091C232.042 61.4091 233.524 61.6545 234.524 62.7272C235.6 63.9091 235.807 65.4363 235.807 66.3909C235.807 67.8091 235.364 69.3182 234.534 70.2C233.411 71.4091 231.778 71.5909 230.938 71.5909C229.608 71.5909 228.277 71.1909 227.362 70.2545C226.258 69.1272 226.116 67.5091 226.116 66.6182C226.116 64.0363 227.334 61.4091 230.967 61.4091ZM229.136 69.2727C229.438 69.6818 229.957 70.0545 230.967 70.0545C231.854 70.0545 232.448 69.7545 232.854 69.1545C233.194 68.6727 233.543 67.9182 233.543 66.3636C233.543 65.8909 233.505 65.2181 233.288 64.6272C232.873 63.4272 232.014 62.9 230.976 62.9C230.164 62.9 229.523 63.2272 229.117 63.7181C228.541 64.3909 228.372 65.4454 228.372 66.5454C228.381 67.4818 228.541 68.5182 229.136 69.2727Z" fill="black"/>
<path d="M245.876 61.6364V67.5636C245.876 68.6273 245.961 69.9636 248.075 69.9636C248.424 69.9636 249.472 69.9545 250.029 69.1182C250.236 68.8182 250.349 68.4454 250.349 67.4636V61.6454H252.463V67.7182C252.463 70.6182 250.076 71.5454 248.028 71.5454C247.018 71.5454 245.178 71.3273 244.225 69.8636C243.734 69.1182 243.706 68.3727 243.706 67.4636V61.6454H245.876V61.6364Z" fill="black"/>
<path d="M260.777 61.6364H263.891C265.344 61.6364 266.562 61.7273 267.401 62.7C267.93 63.3182 268.015 64.0182 268.015 64.5182C268.015 65.6545 267.524 66.6091 266.731 67.1091C265.986 67.5636 264.967 67.5636 264.438 67.5636H262.966V71.3454H260.768V61.6364H260.777ZM262.919 66.0182H263.787C264.486 66.0182 265.788 66.0182 265.788 64.5363C265.788 63.2182 264.627 63.2182 264.014 63.2182H262.919V66.0182Z" fill="black"/>
</g>
<defs>
<clipPath id="clip0">
<rect width="285" height="88" fill="white"/>
</clipPath>
</defs>
</svg>