<svg width="24" height="25" viewBox="0 0 24 25" fill="none" xmlns="http://www.w3.org/2000/svg">
<path fill-rule="evenodd" clip-rule="evenodd" d="M2 7.5C2 4.73858 4.23858 2.5 7 2.5H17C19.7614 2.5 22 4.73858 22 7.5V17.5C22 20.2614 19.7614 22.5 17 22.5H7C4.23858 22.5 2 20.2614 2 17.5V7.5Z" stroke="white" stroke-width="2" stroke-linecap="round" stroke-linejoin="round"/>
<path fill-rule="evenodd" clip-rule="evenodd" d="M15.9998 11.87C16.2529 13.577 15.3828 15.2538 13.8414 16.0297C12.3 16.8055 10.4349 16.5054 9.21465 15.2852C7.99444 14.0649 7.69431 12.1998 8.47014 10.6584C9.24597 9.11697 10.9228 8.24687 12.6298 8.49999C14.3728 8.75846 15.7414 10.127 15.9998 11.87Z" stroke="white" stroke-width="2" stroke-linecap="round" stroke-linejoin="round"/>
</svg>
