<svg width="252" height="165" viewBox="0 0 252 165" fill="none" xmlns="http://www.w3.org/2000/svg">
<path d="M178.13 155.868L178.141 164.14C178.141 164.266 178.249 164.375 178.373 164.375H179.826C179.961 164.375 180.059 164.266 180.059 164.14V159.554H180.069L184.898 164.435C184.925 164.456 185.022 164.495 185.055 164.495H185.249C185.373 164.495 185.481 164.396 185.481 164.271V155.999C185.481 155.874 185.373 155.765 185.249 155.765H183.78C183.645 155.765 183.548 155.874 183.548 155.999V160.361H183.537L178.66 155.645H178.352C178.244 155.65 178.13 155.748 178.13 155.868ZM168.597 156.004V164.14C168.597 164.266 168.694 164.375 168.829 164.375H173.89C174.025 164.375 174.123 164.266 174.123 164.14V162.799C174.123 162.673 174.025 162.564 173.89 162.564H170.504V160.907H173.291C173.415 160.907 173.523 160.808 173.523 160.672V159.331C173.523 159.205 173.415 159.096 173.291 159.096H170.504V157.575H173.89C174.025 157.575 174.123 157.466 174.123 157.34V155.999C174.123 155.874 174.025 155.765 173.89 155.765H168.829C168.694 155.77 168.597 155.884 168.597 156.004ZM157.017 156.092L160.83 164.364C160.868 164.44 160.938 164.5 161.041 164.5H161.165C161.262 164.5 161.338 164.44 161.376 164.364L165.216 156.092C165.292 155.934 165.194 155.77 165.011 155.77H163.385C163.288 155.77 163.201 155.846 163.174 155.906L161.16 160.394H161.084L159.069 155.906C159.042 155.846 158.961 155.77 158.859 155.77H157.233C157.044 155.77 156.947 155.934 157.017 156.092ZM147.597 133.402V128.555H155.737C156.093 128.555 156.417 128.266 156.417 127.873V123.958C156.417 123.598 156.093 123.276 155.737 123.276H147.597V118.827H157.487C157.881 118.827 158.167 118.505 158.167 118.145V114.23C158.167 113.87 157.881 113.549 157.487 113.549H142.704C142.309 113.549 142.023 113.87 142.023 114.23V137.999C142.023 138.359 142.309 138.681 142.704 138.681H157.487C157.881 138.681 158.167 138.359 158.167 137.999V134.084C158.167 133.724 157.881 133.402 157.487 133.402H147.597ZM150.39 161.425L151.308 159.396H151.319L152.248 161.425H150.39ZM147.225 164.058C147.149 164.216 147.252 164.38 147.435 164.38H148.78C149.023 164.38 149.158 164.233 149.223 164.086L149.666 163.104H152.988L153.431 164.075C153.539 164.309 153.636 164.38 153.857 164.38H155.213C155.397 164.38 155.494 164.222 155.424 164.058L151.6 155.786C151.562 155.71 151.475 155.65 151.389 155.65H151.265C151.178 155.65 151.092 155.71 151.059 155.786L147.225 164.058ZM136.503 156.004V164.14C136.503 164.266 136.611 164.375 136.735 164.375H138.188C138.323 164.375 138.421 164.266 138.421 164.14V160.907H141.915V164.14C141.915 164.266 142.012 164.375 142.147 164.375H143.6C143.725 164.375 143.833 164.266 143.833 164.14V156.004C143.833 155.879 143.725 155.77 143.6 155.77H142.147C142.012 155.77 141.915 155.879 141.915 156.004V159.102H138.421V156.004C138.421 155.879 138.323 155.77 138.188 155.77H136.735C136.611 155.77 136.503 155.884 136.503 156.004ZM119.57 155.868L119.581 164.14C119.581 164.266 119.689 164.375 119.813 164.375H121.266C121.401 164.375 121.499 164.266 121.499 164.14V159.554H121.509L126.338 164.435C126.365 164.456 126.462 164.495 126.495 164.495H126.689C126.813 164.495 126.921 164.396 126.921 164.271V155.999C126.921 155.874 126.813 155.765 126.689 155.765H125.225C125.09 155.765 124.993 155.874 124.993 155.999V160.361H124.982L120.105 155.645H119.797C119.678 155.65 119.57 155.748 119.57 155.868ZM113.354 118.827H118.458V137.999C118.458 138.359 118.782 138.681 119.138 138.681H123.421C123.778 138.681 124.102 138.359 124.102 137.999V118.827H129.206C129.6 118.827 129.887 118.505 129.887 118.145V114.23C129.887 113.87 129.6 113.549 129.206 113.549H113.354C112.959 113.549 112.673 113.87 112.673 114.23V118.145C112.673 118.505 112.959 118.827 113.354 118.827ZM110.032 156.004V164.14C110.032 164.266 110.129 164.375 110.264 164.375H115.325C115.46 164.375 115.557 164.266 115.557 164.14V162.799C115.557 162.673 115.46 162.564 115.325 162.564H111.938V160.907H114.725C114.85 160.907 114.958 160.808 114.958 160.672V159.331C114.958 159.205 114.85 159.096 114.725 159.096H111.938V157.575H115.325C115.46 157.575 115.557 157.466 115.557 157.34V155.999C115.557 155.874 115.46 155.765 115.325 155.765H110.264C110.129 155.77 110.032 155.884 110.032 156.004ZM100.569 157.58H101.741C103.124 157.58 104.123 158.676 104.123 160.061C104.123 161.463 103.118 162.559 101.741 162.559H100.569V157.58ZM98.6622 156.004V164.14C98.6622 164.266 98.7595 164.375 98.8837 164.375H101.865C104.225 164.375 106.154 162.444 106.154 160.061C106.154 157.7 104.22 155.77 101.865 155.77H98.8837C98.7595 155.77 98.6622 155.884 98.6622 156.004ZM86.3907 155.846L85.008 164.107C84.9864 164.266 85.0944 164.38 85.2402 164.38H86.6823C86.8066 164.38 86.9038 164.282 86.9146 164.184L87.4493 160.383H87.4763L89.5396 164.364C89.5774 164.44 89.6746 164.5 89.7502 164.5H89.9717C90.0311 164.5 90.1445 164.44 90.1769 164.364L92.2294 160.383H92.2564L92.8073 164.184C92.8181 164.282 92.9315 164.38 93.0396 164.38H94.4817C94.6275 164.38 94.741 164.271 94.714 164.107L93.3312 155.846C93.3204 155.737 93.207 155.65 93.1098 155.65H92.9153C92.8559 155.65 92.7425 155.699 92.7101 155.77L89.8745 161.081H89.8475L87.0118 155.77C86.974 155.699 86.866 155.65 86.8066 155.65H86.6121C86.5095 155.65 86.4015 155.737 86.3907 155.846ZM79.7526 138.681H84.0033C84.3976 138.681 84.6839 138.359 84.6839 137.999V124.607H84.7217L98.8243 138.861C98.8945 138.932 99.1807 139.041 99.2888 139.041H99.8613C100.218 139.041 100.542 138.752 100.542 138.392V114.23C100.542 113.87 100.218 113.549 99.8613 113.549H95.5781C95.1839 113.549 94.8976 113.87 94.8976 114.23V126.973H94.8598L80.6114 113.189H79.7202C79.3637 113.189 79.0396 113.478 79.0396 113.832L79.0774 137.994C79.072 138.359 79.3961 138.681 79.7526 138.681ZM77.133 161.425L78.0512 159.396H78.062L78.991 161.425H77.133ZM73.9679 164.058C73.8977 164.216 73.9949 164.38 74.1785 164.38H75.5234C75.7665 164.38 75.9015 164.233 75.9663 164.086L76.4038 163.104H79.731L80.1685 164.075C80.2765 164.309 80.3791 164.38 80.5952 164.38H81.9509C82.1345 164.38 82.2317 164.222 82.1615 164.058L78.3375 155.786C78.2996 155.71 78.2132 155.65 78.1268 155.65H78.0026C77.9162 155.65 77.8297 155.71 77.7919 155.786L73.9679 164.058ZM29.1918 137.89L25.1571 113.761C25.1193 113.439 24.8006 113.189 24.5143 113.189H23.9418C23.7635 113.189 23.4449 113.33 23.3368 113.549L15.0514 129.056H14.9812L6.6957 113.549C6.58767 113.33 6.269 113.189 6.09076 113.189H5.51823C5.23197 113.189 4.91329 113.439 4.87549 113.761L0.840776 137.89C0.77056 138.359 1.08923 138.681 1.52133 138.681H5.73428C6.09076 138.681 6.37702 138.392 6.41483 138.108L7.98659 127.012H8.0568L14.09 138.643C14.198 138.855 14.4843 139.035 14.6949 139.035H15.3376C15.5159 139.035 15.84 138.855 15.9426 138.643L21.9433 127.012H22.0135L23.6231 138.108C23.6609 138.397 23.9796 138.681 24.3037 138.681H28.5166C28.9379 138.681 29.262 138.359 29.1918 137.89ZM60.4702 126.15C60.4702 130.065 57.2565 133.293 53.3298 133.293C49.4355 133.293 46.2272 130.06 46.2272 126.15C46.2272 122.202 49.4409 118.931 53.3298 118.931C57.2565 118.936 60.4702 122.202 60.4702 126.15ZM66.1847 126.15C66.1847 118.969 60.4702 113.189 53.3298 113.189C46.1894 113.189 40.5127 118.969 40.5127 126.15C40.5127 133.331 46.1894 139.041 53.3298 139.041C60.4702 139.041 66.1847 133.331 66.1847 126.15ZM71.2132 157.139C71.3105 157.041 71.3105 156.893 71.2024 156.795C70.3707 156.032 69.4687 155.65 68.2426 155.65C65.7958 155.65 63.8298 157.629 63.8298 160.089C63.8298 162.548 65.7958 164.5 68.2426 164.5C69.3282 164.5 70.3815 164.118 71.2132 163.306C71.2997 163.219 71.3105 163.06 71.2241 162.973L70.2734 161.954C70.1978 161.866 70.0412 161.866 69.9548 161.943C69.5173 162.324 68.8907 162.532 68.3182 162.532C66.9355 162.532 65.9092 161.403 65.9092 160.034C65.9092 158.655 66.9247 157.504 68.3074 157.504C68.9069 157.504 69.5065 157.728 69.9548 158.131C70.0412 158.218 70.1762 158.218 70.2626 158.131L71.2132 157.139ZM161.878 66.7903V8.57022C161.878 1.2634 170.844 4.75323 170.844 2.0268C170.844 0.718114 170.196 0.5 168.468 0.5C164.687 0.5 161.878 0.718114 155.402 0.718114H150.433L129.876 50.0392C129.044 47.9998 117.918 20.9046 112.354 11.3457C106.753 1.72144 99.2672 0.570887 93.153 0.505453C103.475 5.71838 108.725 27.0336 108.725 27.0336C107.601 23.98 100.445 5.34213 87.8598 0.5H71.5319C80.9624 2.70841 84.8783 7.03797 88.0164 11.771V47.8144C88.0164 61.0103 87.0442 69.5113 79.3745 71.6924C76.5658 72.5649 75.3776 72.0196 75.3776 73.7645C75.3776 74.746 76.3498 74.8551 77.8621 74.8551H99.5696C101.298 74.8551 101.946 74.637 101.946 73.6555C101.946 72.1287 100.65 72.5649 97.8412 71.6924C93.7363 70.3838 90.6036 65.9124 90.6036 56.6426V15.9152C96.6584 26.3084 111.269 58.7583 115.671 70.5746C117.648 75.8802 121.914 74.6424 121.914 74.6424C122.671 74.6424 123.103 73.3338 123.535 72.3522L148.705 10.097H148.921V66.7903C148.921 74.0972 139.955 70.6073 139.955 73.3338C139.955 74.6424 140.603 74.8605 142.331 74.8605H168.468C170.196 74.8605 170.844 74.6424 170.844 73.3338C170.844 70.6073 161.878 74.0972 161.878 66.7903ZM185.125 121.412C185.125 122.922 183.877 124.285 182.414 124.285H177.131V118.685H182.414C183.872 118.685 185.125 119.907 185.125 121.412ZM190.656 121.302C190.656 117.033 187.156 113.549 182.873 113.549H172.194C171.8 113.549 171.514 113.87 171.514 114.23V137.999C171.514 138.359 171.8 138.681 172.194 138.681H176.445C176.802 138.681 177.126 138.359 177.126 137.999V128.844H179.589L184.336 138.359C184.407 138.501 184.623 138.681 184.909 138.681H189.657C190.261 138.681 190.515 138.108 190.261 137.639L185.368 128.522C188.479 127.262 190.656 124.607 190.656 121.302ZM220.152 137.999V134.084C220.152 133.724 219.866 133.402 219.471 133.402H209.582V128.555H217.721C218.078 128.555 218.402 128.266 218.402 127.873V123.958C218.402 123.598 218.083 123.276 217.721 123.276H209.582V118.827H219.471C219.866 118.827 220.152 118.505 220.152 118.145V114.23C220.152 113.87 219.866 113.549 219.471 113.549H204.688C204.294 113.549 204.008 113.87 204.008 114.23V137.999C204.008 138.359 204.294 138.681 204.688 138.681H219.471C219.866 138.681 220.152 138.359 220.152 137.999ZM251.144 113.549H246.504C246.186 113.549 246.04 113.728 245.932 113.87L240.968 121.232L236.004 113.87C235.896 113.728 235.718 113.549 235.432 113.549H230.792C230.22 113.549 229.933 114.121 230.22 114.59L238.111 126.581V137.999C238.111 138.359 238.397 138.681 238.791 138.681H243.042C243.399 138.681 243.723 138.359 243.723 137.999V126.548L251.722 114.59C252.003 114.127 251.717 113.549 251.144 113.549Z" fill="white"/>
</svg>
