<svg width="34" height="34" viewBox="0 0 34 34" fill="none" xmlns="http://www.w3.org/2000/svg">
<path fill-rule="evenodd" clip-rule="evenodd" d="M33.4879 30.9607L26.4775 23.9503C28.3725 21.4371 29.3793 18.3658 29.3398 15.2185C29.3406 7.28042 22.9659 0.813352 15.0287 0.699951H14.8213C6.87523 0.699294 0.404898 7.08644 0.302734 15.0318V15.2185C0.302078 23.1645 6.68922 29.6348 14.6346 29.737H14.8213C17.9663 29.76 21.0301 28.7387 23.5324 26.8333L30.5635 33.8851L33.4879 30.9607ZM4.45088 15.2185C4.44975 9.5711 8.96761 4.96105 14.6138 4.8481H14.8213C20.4686 4.84697 25.0787 9.36482 25.1916 15.0111V15.2185C25.1928 20.8658 20.6749 25.4759 15.0287 25.5888H14.8213C9.17389 25.59 4.56383 21.0721 4.45088 15.4259V15.2185Z" fill="white"/>
</svg>
