<svg width="67" height="78" viewBox="0 0 67 78" fill="none" xmlns="http://www.w3.org/2000/svg">
<g filter="url(#filter0_d_409_38265)">
<path d="M17.7491 45.1172L31.9328 63.741C32.674 64.7089 34.0613 64.8975 35.0369 64.1684C35.2016 64.049 35.341 63.9044 35.4676 63.741L49.6513 45.1172C56.3156 36.3741 54.5735 23.9289 45.7617 17.3229C36.95 10.7168 24.407 12.4453 17.7491 21.1884C12.3519 28.2658 12.3519 38.0334 17.7491 45.1172ZM33.7002 22.6655C39.3826 22.6655 43.9943 27.2413 43.9943 32.8794C43.9943 38.5174 39.3826 43.0932 33.7002 43.0932C28.0179 43.0932 23.4061 38.5174 23.4061 32.8794C23.4188 27.2413 28.0179 22.6718 33.7002 22.6655Z" fill="#212121"/>
</g>
<defs>
<filter id="filter0_d_409_38265" x="0.701172" y="0.30957" width="66" height="77.3022" filterUnits="userSpaceOnUse" color-interpolation-filters="sRGB">
<feFlood flood-opacity="0" result="BackgroundImageFix"/>
<feColorMatrix in="SourceAlpha" type="matrix" values="0 0 0 0 0 0 0 0 0 0 0 0 0 0 0 0 0 0 127 0" result="hardAlpha"/>
<feOffset/>
<feGaussianBlur stdDeviation="6.5"/>
<feColorMatrix type="matrix" values="0 0 0 0 0 0 0 0 0 0 0 0 0 0 0 0 0 0 0.1 0"/>
<feBlend mode="normal" in2="BackgroundImageFix" result="effect1_dropShadow_409_38265"/>
<feBlend mode="normal" in="SourceGraphic" in2="effect1_dropShadow_409_38265" result="shape"/>
</filter>
</defs>
</svg>
