<svg width="66" height="78" viewBox="0 0 66 78" fill="none" xmlns="http://www.w3.org/2000/svg">
<g filter="url(#filter0_f_176_5634)">
<ellipse cx="32.9992" cy="64.7328" rx="14.7819" ry="4.78238" fill="black" fill-opacity="0.2"/>
</g>
<g filter="url(#filter1_d_176_5634)">
<path d="M17.048 44.8081L31.2316 63.4319C31.9728 64.3998 33.3601 64.5884 34.3357 63.8593C34.5004 63.7399 34.6398 63.5953 34.7665 63.4319L48.9502 44.8081C55.6144 36.065 53.8723 23.6198 45.0606 17.0138C36.2488 10.4078 23.7059 12.1363 17.048 20.8793C11.6507 27.9568 11.6507 37.7244 17.048 44.8081ZM32.9991 22.3564C38.6814 22.3564 43.2932 26.9322 43.2932 32.5703C43.2932 38.2083 38.6814 42.7842 32.9991 42.7842C27.3167 42.7842 22.705 38.2083 22.705 32.5703C22.7176 26.9322 27.3167 22.3627 32.9991 22.3564Z" fill="white"/>
</g>
<defs>
<filter id="filter0_f_176_5634" x="11.2173" y="52.9504" width="43.564" height="23.5648" filterUnits="userSpaceOnUse" color-interpolation-filters="sRGB">
<feFlood flood-opacity="0" result="BackgroundImageFix"/>
<feBlend mode="normal" in="SourceGraphic" in2="BackgroundImageFix" result="shape"/>
<feGaussianBlur stdDeviation="3.5" result="effect1_foregroundBlur_176_5634"/>
</filter>
<filter id="filter1_d_176_5634" x="0" y="0.000488281" width="66" height="77.3024" filterUnits="userSpaceOnUse" color-interpolation-filters="sRGB">
<feFlood flood-opacity="0" result="BackgroundImageFix"/>
<feColorMatrix in="SourceAlpha" type="matrix" values="0 0 0 0 0 0 0 0 0 0 0 0 0 0 0 0 0 0 127 0" result="hardAlpha"/>
<feOffset/>
<feGaussianBlur stdDeviation="6.5"/>
<feColorMatrix type="matrix" values="0 0 0 0 0 0 0 0 0 0 0 0 0 0 0 0 0 0 0.1 0"/>
<feBlend mode="normal" in2="BackgroundImageFix" result="effect1_dropShadow_176_5634"/>
<feBlend mode="normal" in="SourceGraphic" in2="effect1_dropShadow_176_5634" result="shape"/>
</filter>
</defs>
</svg>
