<svg width="48" height="57" viewBox="0 0 48 57" fill="none" xmlns="http://www.w3.org/2000/svg">
<g filter="url(#filter0_if_4467_68969)">
<ellipse cx="24" cy="51" rx="20" ry="2" fill="#C4C4C4"/>
</g>
<g clip-path="url(#clip0_4467_68969)">
<path d="M8.04796 31.8076L22.2316 50.4314C22.9728 51.3994 24.3601 51.588 25.3357 50.8588C25.5004 50.7394 25.6398 50.5949 25.7665 50.4314L39.9502 31.8076C46.6144 23.0645 44.8723 10.6193 36.0606 4.01332C27.2488 -2.5927 14.7059 -0.864199 8.04796 7.87887C2.65068 14.9563 2.65068 24.7239 8.04796 31.8076ZM23.9991 9.35596C29.6814 9.35596 34.2932 13.9318 34.2932 19.5698C34.2932 25.2079 29.6814 29.7837 23.9991 29.7837C18.3167 29.7837 13.705 25.2079 13.705 19.5698C13.7176 13.9318 18.3167 9.36224 23.9991 9.35596Z" fill="white"/>
</g>
<defs>
<filter id="filter0_if_4467_68969" x="0" y="45" width="48" height="12" filterUnits="userSpaceOnUse" color-interpolation-filters="sRGB">
<feFlood flood-opacity="0" result="BackgroundImageFix"/>
<feBlend mode="normal" in="SourceGraphic" in2="BackgroundImageFix" result="shape"/>
<feColorMatrix in="SourceAlpha" type="matrix" values="0 0 0 0 0 0 0 0 0 0 0 0 0 0 0 0 0 0 127 0" result="hardAlpha"/>
<feOffset dx="2" dy="2"/>
<feGaussianBlur stdDeviation="2"/>
<feComposite in2="hardAlpha" operator="arithmetic" k2="-1" k3="1"/>
<feColorMatrix type="matrix" values="0 0 0 0 0 0 0 0 0 0 0 0 0 0 0 0 0 0 0.1 0"/>
<feBlend mode="multiply" in2="shape" result="effect1_innerShadow_4467_68969"/>
<feGaussianBlur stdDeviation="2" result="effect2_foregroundBlur_4467_68969"/>
</filter>
<clipPath id="clip0_4467_68969">
<rect width="40" height="51.3024" fill="white" transform="translate(4)"/>
</clipPath>
</defs>
</svg>
